<svg version="1.1" id="Layer_1" xmlns="http://www.w3.org/2000/svg" xmlns:xlink="http://www.w3.org/1999/xlink" x="0px" y="0px"
	 width="100%" viewBox="0 0 96 96" enable-background="new 0 0 96 96" xml:space="preserve">
<path fill="#000000" opacity="1.000000" stroke="none" 
	d="
M97.000000,59.000000 
	C97.000000,71.634369 97.000000,84.268745 97.000000,96.951553 
	C65.113945,96.951553 33.227795,96.951553 1.000000,96.951553 
	C1.000000,84.647873 1.000000,72.292595 1.396707,59.457565 
	C5.252209,59.107807 6.664519,57.215950 8.376631,54.230774 
	C12.029731,47.861366 15.951201,41.296257 21.151489,36.239536 
	C30.789288,26.867804 43.116467,24.436466 56.257065,26.144409 
	C59.477280,26.562958 62.236755,25.869539 62.806461,22.646387 
	C62.949284,21.838364 59.408482,19.549942 57.401711,19.318262 
	C34.833553,16.712757 16.126684,24.784090 4.708600,44.565964 
	C3.759756,46.209839 2.249445,47.529633 1.000001,49.000000 
	C1.000000,33.036537 1.000000,17.073071 1.000000,1.054803 
	C32.890316,1.054803 64.780746,1.054803 97.000000,1.054803 
	C97.000000,16.686029 97.000000,32.374355 96.678070,48.424583 
	C92.617584,43.741680 89.282776,38.324574 85.050491,33.735085 
	C77.818924,25.893188 77.614876,26.141636 84.933983,18.420113 
	C87.113739,16.120510 91.049820,13.491285 87.693954,10.219547 
	C84.408218,7.016176 81.721359,10.846405 79.459717,13.100324 
	C57.287193,35.197067 35.158276,57.337585 13.033575,79.482262 
	C11.862691,80.654198 10.412620,81.817322 9.875585,83.273376 
	C9.378949,84.619888 9.361933,86.913559 10.188560,87.760384 
	C11.008683,88.600540 13.315478,88.629776 14.657953,88.146713 
	C16.114445,87.622635 17.271156,86.158638 18.452927,84.997017 
	C22.727518,80.795273 26.974941,76.565468 31.196899,72.310806 
	C33.100807,70.392143 34.801052,70.107460 37.316380,71.686333 
	C46.185642,77.253586 56.635204,76.183281 63.430645,69.335632 
	C70.221703,62.492397 71.269173,52.207115 65.592377,43.207798 
	C62.974342,39.057472 66.284233,37.582153 68.177414,35.329525 
	C70.141052,32.993053 72.089470,32.282837 74.992210,34.399254 
	C81.822052,39.378963 86.677399,45.887470 89.458984,53.649208 
	C90.926636,57.744564 92.938896,59.381413 97.000000,59.000000 
M30.487043,46.246857 
	C29.970585,49.224453 29.454126,52.202053 28.937668,55.179649 
	C28.923971,54.761318 28.910275,54.342987 28.896578,53.924656 
	C35.340630,47.834221 41.784683,41.743786 47.998634,35.870819 
	C42.387573,33.890759 35.734005,37.430050 30.487043,46.246857 
z"/>
<path fill="#282828" opacity="1.000000" stroke="none" 
	d="
M97.000000,58.545891 
	C92.938896,59.381413 90.926636,57.744564 89.458984,53.649208 
	C86.677399,45.887470 81.822052,39.378963 74.992210,34.399254 
	C72.089470,32.282837 70.141052,32.993053 68.177414,35.329525 
	C66.284233,37.582153 62.974342,39.057472 65.592377,43.207798 
	C71.269173,52.207115 70.221703,62.492397 63.430645,69.335632 
	C56.635204,76.183281 46.185642,77.253586 37.316380,71.686333 
	C34.801052,70.107460 33.100807,70.392143 31.196899,72.310806 
	C26.974941,76.565468 22.727518,80.795273 18.452927,84.997017 
	C17.271156,86.158638 16.114445,87.622635 14.657953,88.146713 
	C13.315478,88.629776 11.008683,88.600540 10.188560,87.760384 
	C9.361933,86.913559 9.378949,84.619888 9.875585,83.273376 
	C10.412620,81.817322 11.862691,80.654198 13.033575,79.482262 
	C35.158276,57.337585 57.287193,35.197067 79.459717,13.100324 
	C81.721359,10.846405 84.408218,7.016176 87.693954,10.219547 
	C91.049820,13.491285 87.113739,16.120510 84.933983,18.420113 
	C77.614876,26.141636 77.818924,25.893188 85.050491,33.735085 
	C89.282776,38.324574 92.617584,43.741680 96.678070,48.893242 
	C97.000000,52.030594 97.000000,55.061188 97.000000,58.545891 
M59.024452,63.427490 
	C60.015118,60.540779 61.505180,57.714180 61.861855,54.751152 
	C62.250977,51.518593 61.974598,47.003788 57.774128,47.031620 
	C53.614765,47.059181 54.889576,51.321941 54.933670,54.193668 
	C55.017879,59.677799 53.719189,60.964607 48.184269,60.940655 
	C47.190140,60.936348 46.071339,60.505802 45.229805,60.834518 
	C43.692871,61.434868 42.320190,62.455715 40.878998,63.301170 
	C41.882717,64.621498 42.641335,66.718971 43.932991,67.126328 
	C49.254581,68.804703 54.449993,68.691826 59.024452,63.427490 
z"/>
<path fill="#282828" opacity="1.000000" stroke="none" 
	d="
M1.000001,49.454109 
	C2.249445,47.529633 3.759756,46.209839 4.708600,44.565964 
	C16.126684,24.784090 34.833553,16.712757 57.401711,19.318262 
	C59.408482,19.549942 62.949284,21.838364 62.806461,22.646387 
	C62.236755,25.869539 59.477280,26.562958 56.257065,26.144409 
	C43.116467,24.436466 30.789288,26.867804 21.151489,36.239536 
	C15.951201,41.296257 12.029731,47.861366 8.376631,54.230774 
	C6.664519,57.215950 5.252209,59.107807 1.396707,58.988907 
	C1.000000,55.969406 1.000000,52.938812 1.000001,49.454109 
z"/>
<path fill="#272727" opacity="1.000000" stroke="none" 
	d="
M30.662363,45.904480 
	C35.734005,37.430050 42.387573,33.890759 47.998634,35.870819 
	C41.784683,41.743786 35.340630,47.834221 28.896578,53.924656 
	C28.910275,54.342987 28.923971,54.761318 28.937668,55.179649 
	C29.454126,52.202053 29.970585,49.224453 30.662363,45.904480 
z"/>
<path fill="#000000" opacity="1.000000" stroke="none" 
	d="
M58.764610,63.698364 
	C54.449993,68.691826 49.254581,68.804703 43.932991,67.126328 
	C42.641335,66.718971 41.882717,64.621498 40.878998,63.301170 
	C42.320190,62.455715 43.692871,61.434868 45.229805,60.834518 
	C46.071339,60.505802 47.190140,60.936348 48.184269,60.940655 
	C53.719189,60.964607 55.017879,59.677799 54.933670,54.193668 
	C54.889576,51.321941 53.614765,47.059181 57.774128,47.031620 
	C61.974598,47.003788 62.250977,51.518593 61.861855,54.751152 
	C61.505180,57.714180 60.015118,60.540779 58.764610,63.698364 
z"/>
</svg>