<svg version="1.1" id="Layer_1" xmlns="http://www.w3.org/2000/svg" xmlns:xlink="http://www.w3.org/1999/xlink" x="0px" y="0px"
	 width="100%" viewBox="0 0 96 96" enable-background="new 0 0 96 96" xml:space="preserve">
<path fill="#000000" opacity="1.000000" stroke="none" 
	d="
M97.000000,59.000000 
	C97.000000,71.634369 97.000000,84.268745 97.000000,96.951553 
	C65.113945,96.951553 33.227795,96.951553 1.000000,96.951553 
	C1.000000,84.647873 1.000000,72.292595 1.396565,59.457397 
	C5.266171,59.110527 7.042667,57.514988 8.294492,54.139133 
	C11.612123,45.192333 17.280296,38.082054 25.409397,32.713726 
	C48.153282,17.694029 79.734276,27.728796 89.052940,53.269772 
	C90.482529,57.188042 92.526619,59.613247 97.000000,59.000000 
M60.326950,38.000492 
	C56.209133,37.006985 52.112629,35.287159 47.969223,35.165558 
	C38.231483,34.879768 31.564409,41.038063 29.451660,51.291927 
	C27.796816,59.323437 32.422867,68.378700 40.005913,71.951340 
	C48.620975,76.010201 58.969208,73.739182 64.446976,66.859360 
	C71.462852,58.047764 69.876610,45.422852 60.326950,38.000492 
z"/>
<path fill="#000000" opacity="1.000000" stroke="none" 
	d="
M1.000000,49.000000 
	C1.000000,33.036537 1.000000,17.073071 1.000000,1.054803 
	C32.890316,1.054803 64.780746,1.054803 97.000000,1.054803 
	C97.000000,16.686029 97.000000,32.374355 96.677872,48.424980 
	C93.095650,44.224365 90.238106,39.298992 86.509567,35.157845 
	C63.754669,9.884873 21.128750,14.242163 4.702433,44.568718 
	C3.803905,46.227596 2.249243,47.531082 1.000000,49.000000 
z"/>
<path fill="#282828" opacity="1.000000" stroke="none" 
	d="
M1.000000,49.454109 
	C2.249243,47.531082 3.803905,46.227596 4.702433,44.568718 
	C21.128750,14.242163 63.754669,9.884873 86.509567,35.157845 
	C90.238106,39.298992 93.095650,44.224365 96.677872,48.893639 
	C97.000000,52.030594 97.000000,55.061188 97.000000,58.545891 
	C92.526619,59.613247 90.482529,57.188042 89.052940,53.269772 
	C79.734276,27.728796 48.153282,17.694029 25.409397,32.713726 
	C17.280296,38.082054 11.612123,45.192333 8.294492,54.139133 
	C7.042667,57.514988 5.266171,59.110527 1.396565,58.988739 
	C1.000000,55.969406 1.000000,52.938812 1.000000,49.454109 
z"/>
<path fill="#282828" opacity="1.000000" stroke="none" 
	d="
M60.608562,38.237984 
	C69.876610,45.422852 71.462852,58.047764 64.446976,66.859360 
	C58.969208,73.739182 48.620975,76.010201 40.005913,71.951340 
	C32.422867,68.378700 27.796816,59.323437 29.451660,51.291927 
	C31.564409,41.038063 38.231483,34.879768 47.969223,35.165558 
	C52.112629,35.287159 56.209133,37.006985 60.608562,38.237984 
M36.287968,52.930592 
	C36.521915,54.721249 36.534859,56.575855 37.031075,58.290619 
	C38.545109,63.522614 42.383240,66.232994 47.571484,66.835487 
	C52.783749,67.440758 57.099037,65.483116 59.870617,60.923889 
	C62.768353,56.157146 62.242195,51.404194 59.148010,46.882000 
	C56.006954,42.291317 51.385334,41.433453 46.341572,42.166225 
	C40.627037,42.996449 38.003296,47.093201 36.287968,52.930592 
z"/>
<path fill="#000000" opacity="1.000000" stroke="none" 
	d="
M36.381523,52.548683 
	C38.003296,47.093201 40.627037,42.996449 46.341572,42.166225 
	C51.385334,41.433453 56.006954,42.291317 59.148010,46.882000 
	C62.242195,51.404194 62.768353,56.157146 59.870617,60.923889 
	C57.099037,65.483116 52.783749,67.440758 47.571484,66.835487 
	C42.383240,66.232994 38.545109,63.522614 37.031075,58.290619 
	C36.534859,56.575855 36.521915,54.721249 36.381523,52.548683 
z"/>
</svg>